Coordinates
version=1
nRows=10
nColumns=40
inDegrees=yes

Units are S.I. units (second, meters, Newtons, ...)
If the header above contains a line with 'inDegrees', this indicates whether rotational values are in degrees (yes) or radians (no).

endheader
time	pelvis_tilt	pelvis_list	pelvis_rotation	pelvis_tx	pelvis_ty	pelvis_tz	hip_flexion_r	hip_adduction_r	hip_rotation_r	knee_angle_r	knee_angle_r_beta	ankle_angle_r	subtalar_angle_r	mtp_angle_r	hip_flexion_l	hip_adduction_l	hip_rotation_l	knee_angle_l	knee_angle_l_beta	ankle_angle_l	subtalar_angle_l	mtp_angle_l	lumbar_extension	lumbar_bending	lumbar_rotation	arm_flex_r	arm_add_r	arm_rot_r	elbow_flex_r	pro_sup_r	wrist_flex_r	wrist_dev_r	arm_flex_l	arm_add_l	arm_rot_l	elbow_flex_l	pro_sup_l	wrist_flex_l	wrist_dev_l
      2.68000000	    -36.88114022	      2.04179094	      3.37609378	     -0.46567689	      0.59953518	     -0.92648381	    103.91674755	    -18.15387223	     11.47746826	    103.94613071	      1.81420223	     37.99519229	      0.00000000	      0.00000000	    106.20595469	    -12.13131222	      4.25911298	    101.29985046	      1.76801592	     32.67610605	      0.00000000	      0.00000000	    -33.60311845	     -1.58456668	      1.35895308	    -36.78508849	    -54.17386059	     21.90971909	    106.65365630	     88.15200877	      0.00000000	      0.00000000	      8.28717620	    -66.88777058	     68.32318876	    110.29370573	     88.12027787	      0.00000000	      0.00000000
      2.68500000	    -36.76798652	      2.08452499	      3.39468369	     -0.46538831	      0.59988759	     -0.92642612	    103.77640184	    -18.19520049	     11.49147930	    103.93883164	      1.81407483	     37.99566218	      0.00000000	      0.00000000	    106.03919891	    -12.13391151	      4.19852099	    101.29704454	      1.76796695	     32.69287585	      0.00000000	      0.00000000	    -33.74942938	     -1.57382807	     -0.00582222	    -33.73089152	    -55.43928557	     25.08476765	    106.55102518	     88.15557303	      0.00000000	      0.00000000	      2.48171586	    -67.04221115	     62.44607094	    110.49343634	     88.13292697	      0.00000000	      0.00000000
      2.69000000	    -36.77309845	      2.14984188	      3.39923795	     -0.46540584	      0.59997840	     -0.92643093	    103.79043430	    -18.19684985	     11.55566071	    103.92804449	      1.81388656	     38.11638018	      0.00000000	      0.00000000	    106.00471642	    -12.13067853	      4.12368314	    101.27974106	      1.76766495	     32.74289163	      0.00000000	      0.00000000	    -33.76383194	     -1.62824807	     -0.04437138	    -33.68905127	    -55.36489057	     25.09963354	    106.51283597	     88.14934676	      0.00000000	      0.00000000	      2.52227062	    -67.03349362	     62.49462406	    110.50043691	     88.11878179	      0.00000000	      0.00000000
      2.69500000	    -36.85379184	      2.06974263	      3.43775439	     -0.46570021	      0.59983964	     -0.92647160	    103.87694411	    -18.22496475	     11.48538912	    103.93752422	      1.81405201	     37.95669821	      0.00000000	      0.00000000	    106.13458534	    -12.07382061	      4.21186475	    101.24524042	      1.76706280	     32.65615702	      0.00000000	      0.00000000	    -33.66396616	     -1.55495901	      1.24497811	    -36.62545325	    -54.24753435	     22.07271121	    106.63242340	     88.14647054	      0.00000000	      0.00000000	      8.06834446	    -66.92356940	     68.12141177	    110.32818473	     88.12756010	      0.00000000	      0.00000000
      2.70000000	    -36.88524020	      2.06485879	      3.42285710	     -0.46582388	      0.59980567	     -0.92634951	    103.90793061	    -18.20475818	     11.45444353	    103.90611192	      1.81350377	     37.97512077	      0.00000000	      0.00000000	    106.17453571	    -12.09351346	      4.21872060	    101.23225146	      1.76683610	     32.65411692	      0.00000000	      0.00000000	    -33.66459139	     -1.54318457	      0.81775640	    -35.84730063	    -54.61545063	     22.81697398	    106.70895027	     88.15838214	      0.00000000	      0.00000000	      5.77225456	    -66.99597951	     65.71212434	    110.40910139	     88.14575039	      0.00000000	      0.00000000
      2.70500000	    -36.91156836	      2.07989458	      3.44116528	     -0.46587029	      0.59983191	     -0.92633679	    103.94869420	    -18.20523458	     11.50098805	    103.90264860	      1.81344332	     37.96405087	      0.00000000	      0.00000000	    106.18747588	    -12.08379329	      4.19407993	    101.20795789	      1.76641209	     32.62414884	      0.00000000	      0.00000000	    -33.63692931	     -1.54971358	      0.66898849	    -35.46924103	    -54.75500996	     23.25339759	    106.65072313	     88.15338389	      0.00000000	      0.00000000	      5.28804383	    -67.00996205	     65.30159917	    110.48735258	     88.12213215	      0.00000000	      0.00000000
      2.71000000	    -36.90087547	      2.07929313	      3.50039369	     -0.46589193	      0.59995653	     -0.92646062	    103.93125581	    -18.27586823	     11.50902936	    103.89507980	      1.81331122	     37.97804773	      0.00000000	      0.00000000	    106.16169698	    -12.01145973	      4.17930917	    101.18417571	      1.76599702	     32.61704945	      0.00000000	      0.00000000	    -33.64147672	     -1.52531673	      1.25009367	    -36.75632637	    -54.18747452	     21.92778637	    106.66698052	     88.15142153	      0.00000000	      0.00000000	      8.25523898	    -66.90675800	     68.33696669	    110.36196638	     88.11076320	      0.00000000	      0.00000000
      2.71500000	    -36.91435941	      2.11536098	      3.47493986	     -0.46591220	      0.59999185	     -0.92635232	    103.95678499	    -18.23739463	     11.53871499	    103.88623854	      1.81315691	     37.95611523	      0.00000000	      0.00000000	    106.15551174	    -12.05029029	      4.14635159	    101.17069479	      1.76576173	     32.61438147	      0.00000000	      0.00000000	    -33.63369341	     -1.57380267	      1.27155686	    -36.77915936	    -54.16133861	     21.90818410	    106.66483580	     88.15159198	      0.00000000	      0.00000000	      8.32316232	    -66.91785201	     68.39288041	    110.32431710	     88.11829403	      0.00000000	      0.00000000
      2.72000000	    -36.99145810	      2.15518953	      3.49666139	     -0.46602150	      0.59995346	     -0.92637130	    104.05435327	    -18.23819150	     11.60118001	    103.85418188	      1.81259742	     37.89367374	      0.00000000	      0.00000000	    106.21616316	    -12.02056712	      4.11583058	    101.15819394	      1.76554355	     32.60999848	      0.00000000	      0.00000000	    -33.55743580	     -1.58947849	      0.59016680	    -35.34423109	    -54.77265260	     23.41589331	    106.57907756	     88.15691560	      0.00000000	      0.00000000	      5.41615792	    -67.00575701	     65.46348892	    110.43240808	     88.12819842	      0.00000000	      0.00000000
      2.72500000	    -36.93168300	      2.12132822	      3.50027591	     -0.46595229	      0.60009851	     -0.92633357	    103.96405263	    -18.25626564	     11.53936622	    103.87670461	      1.81299051	     37.93213681	      0.00000000	      0.00000000	    106.15754636	    -12.02134816	      4.13575350	    101.14363768	      1.76528949	     32.59473263	      0.00000000	      0.00000000	    -33.63314956	     -1.55497025	      1.25314741	    -36.79174194	    -54.15505174	     21.88819407	    106.66992915	     88.15292843	      0.00000000	      0.00000000	      8.26011462	    -66.91259221	     68.32967087	    110.31277969	     88.11987708	      0.00000000	      0.00000000
